<?xml version="1.0" standalone="no"?>
<!DOCTYPE svg PUBLIC "-//W3C//DTD SVG 20010904//EN"
 "http://www.w3.org/TR/2001/REC-SVG-20010904/DTD/svg10.dtd">
<svg version="1.0" xmlns="http://www.w3.org/2000/svg"
 width="512.000000pt" height="512.000000pt" viewBox="0 0 512.000000 512.000000"
 preserveAspectRatio="xMidYMid meet">

<g transform="translate(0.000000,512.000000) scale(0.100000,-0.100000)"
fill="#000000" stroke="none">
<path d="M3138 4111 c-32 -11 -79 -33 -105 -49 -27 -17 -204 -188 -395 -379
-304 -306 -347 -353 -353 -386 -15 -79 25 -145 101 -166 75 -21 84 -14 454
354 190 188 355 348 367 354 30 15 89 14 121 -3 32 -18 495 -482 511 -513 14
-28 14 -88 0 -116 -6 -12 -166 -177 -354 -367 -368 -370 -375 -379 -354 -454
21 -76 87 -116 166 -101 33 6 79 47 372 338 183 183 353 358 377 390 111 149
111 356 0 504 -64 84 -513 525 -566 556 -101 58 -234 72 -342 38z"/>
<path d="M3135 3319 c-31 -17 -1314 -1301 -1331 -1331 -32 -62 -6 -151 55
-183 38 -19 94 -19 129 -1 33 18 1315 1302 1331 1333 29 58 0 147 -58 178 -35
17 -97 19 -126 4z"/>
<path d="M1795 2824 c-42 -21 -699 -679 -736 -737 -96 -147 -90 -345 15 -484
58 -76 499 -512 553 -546 149 -94 341 -87 480 17 32 24 207 194 390 377 291
293 332 339 338 372 15 79 -25 145 -101 166 -75 21 -84 14 -454 -354 -190
-188 -355 -348 -367 -354 -30 -15 -89 -14 -121 3 -32 18 -495 482 -511 513
-14 28 -14 88 0 116 6 12 166 177 354 367 279 281 345 352 353 383 32 116 -88
216 -193 161z"/>
</g>
</svg>
