<?xml version="1.0" encoding="UTF-8" standalone="no"?>
<!-- Created with Inkscape (http://www.inkscape.org/) -->

<svg
   width="210mm"
   height="297mm"
   viewBox="0 0 210 297"
   version="1.1"
   id="svg5"
   inkscape:version="1.1.2 (0a00cf5339, 2022-02-04)"
   sodipodi:docname="image.svg"
   xmlns:inkscape="http://www.inkscape.org/namespaces/inkscape"
   xmlns:sodipodi="http://sodipodi.sourceforge.net/DTD/sodipodi-0.dtd"
   xmlns="http://www.w3.org/2000/svg"
   xmlns:svg="http://www.w3.org/2000/svg">
  <sodipodi:namedview
     id="namedview7"
     pagecolor="#ffffff"
     bordercolor="#666666"
     borderopacity="1.0"
     inkscape:pageshadow="2"
     inkscape:pageopacity="0.0"
     inkscape:pagecheckerboard="0"
     inkscape:document-units="mm"
     showgrid="false"
     inkscape:zoom="0.46146184"
     inkscape:cx="693.44845"
     inkscape:cy="561.25984"
     inkscape:window-width="1366"
     inkscape:window-height="700"
     inkscape:window-x="0"
     inkscape:window-y="0"
     inkscape:window-maximized="1"
     inkscape:current-layer="layer1" />
  <defs
     id="defs2" />
  <g
     inkscape:label="Layer 1"
     inkscape:groupmode="layer"
     id="layer1">
    <g
       id="g1588"
       inkscape:export-filename="/home/caleb/Portfolio Project/Graphics/image.png"
       inkscape:export-xdpi="96"
       inkscape:export-ydpi="96">
      <path
         d="M 58.21534,54.778901 C 42.622561,58.095013 30.663394,70.05418 27.558949,85.364737 c -0.740833,3.4925 -0.740833,4.409722 -0.740833,50.976393 0,45.04972 0.03528,47.51917 0.670278,50.55306 3.175,15.16944 13.970001,26.45833 29.210002,30.55055 4.198055,1.12889 12.876389,1.34056 17.391945,0.38806 16.05139,-3.35139 27.798889,-15.09889 31.079729,-31.04445 0.67027,-3.10444 0.67027,-5.08 0.59972,-51.68194 l -0.10584,-48.401118 -0.84666,-2.998611 C 100.61923,68.572513 89.330342,57.918624 74.26673,54.743624 69.998119,53.861679 62.413396,53.861679 58.21534,54.778901 Z m 15.557501,11.253612 c 11.959168,3.104445 20.990279,13.017501 22.895279,25.153057 0.282223,1.869723 0.352778,15.09889 0.282223,47.73084 -0.105834,49.38889 0.03528,45.86111 -2.116667,51.32917 -3.245556,8.39611 -10.512779,15.16944 -19.332224,18.06222 -2.892778,0.91722 -4.021667,1.09361 -8.113889,1.23472 -4.021667,0.14111 -5.256389,0.0706 -7.9375,-0.56444 -3.98639,-0.9525 -9.489723,-3.63361 -12.523612,-6.10306 -5.080001,-4.19805 -8.995834,-10.40694 -10.65389,-17.03917 l -0.811389,-3.175 V 136.97613 91.291404 l 0.811389,-2.822223 c 3.386667,-12.029723 12.523612,-20.566945 24.588613,-22.965834 3.280833,-0.635001 9.419167,-0.388056 12.911667,0.529166 z"
         id="path11"
         style="fill:#ffffff;stroke:none;stroke-width:0.0352778;fill-opacity:1" />
      <path
         d="m 148.87923,54.285012 c -0.49388,0.105834 -2.36361,0.564445 -4.16277,1.023056 -17.78,4.656667 -29.95084,22.40139 -28.01056,40.851669 0.56444,5.185833 1.48167,8.396113 3.77472,13.123333 2.2225,4.58611 4.37445,7.51417 8.14917,11.1125 3.35139,3.175 5.78555,4.83306 10.12472,6.87917 14.88723,7.05556 33.02,3.56306 44.34417,-8.50195 6.87917,-7.33777 10.33639,-16.1925 10.30111,-26.493608 -0.0353,-6.632223 -1.19944,-11.60639 -4.16277,-17.427224 -4.76251,-9.489723 -13.19389,-16.404167 -23.95362,-19.579168 -2.82222,-0.811389 -3.88055,-0.9525 -9.34861,-1.023055 -3.38667,-0.07056 -6.56167,-0.03528 -7.05556,0.03528 z m 12.45306,9.172223 c 13.79361,3.139723 23.31861,15.134168 23.24806,29.24528 -0.0353,4.656667 -0.84667,8.184445 -2.8575,12.417775 -5.64445,11.78278 -18.48556,18.66195 -31.07973,16.68639 -11.71222,-1.86972 -21.2725,-10.51278 -24.37694,-22.048609 -1.02306,-3.739445 -1.09361,-10.548056 -0.21167,-13.934723 2.99861,-11.28889 11.18306,-19.54389 22.01334,-22.189724 3.56305,-0.881944 9.77194,-0.9525 13.26444,-0.176389 z"
         id="path13"
         style="fill:#ffffff;stroke:none;stroke-width:0.0352778;fill-opacity:1" />
      <path
         d="m 148.87923,142.16196 c -4.90361,0.84667 -10.61861,3.06917 -14.64027,5.67973 -16.79223,10.86555 -22.54251,31.99694 -13.54667,49.95333 10.54805,21.09611 38.20583,27.55195 57.29111,13.37028 7.33778,-5.46806 12.41778,-13.335 14.49917,-22.33083 1.02306,-4.48028 1.16417,-11.35945 0.3175,-15.76917 -2.96333,-15.52223 -15.09889,-27.65778 -30.62111,-30.62112 -2.61056,-0.49388 -11.04195,-0.67027 -13.29973,-0.28222 z m 13.19389,9.34861 c 11.04195,2.71639 19.22639,11.14778 21.90751,22.50723 0.70555,3.03389 0.67027,9.24278 -0.0353,12.41778 -2.32834,10.23055 -9.8425,18.48555 -19.82611,21.80166 -16.05139,5.32695 -32.91417,-3.59833 -37.6414,-20.0025 -2.8575,-9.8425 -0.28222,-20.53166 6.80862,-28.04583 2.82222,-2.99861 5.11527,-4.72722 8.39611,-6.38528 6.52639,-3.28083 13.335,-4.05694 20.39055,-2.29306 z"
         id="path15"
         style="fill:#ffffff;stroke:none;stroke-width:0.0352778;fill-opacity:1" />
    </g>
  </g>
</svg>
