<?xml version="1.0" standalone="no"?>
<!DOCTYPE svg PUBLIC "-//W3C//DTD SVG 20010904//EN"
 "http://www.w3.org/TR/2001/REC-SVG-20010904/DTD/svg10.dtd">
<svg version="1.0" xmlns="http://www.w3.org/2000/svg"
 width="512.000000pt" height="512.000000pt" viewBox="0 0 512.000000 512.000000"
 preserveAspectRatio="xMidYMid meet">
<metadata>
Created by potrace 1.16, written by Peter Selinger 2001-2019
</metadata>
<g transform="translate(0.000000,512.000000) scale(0.100000,-0.100000)"
fill="#000000" stroke="none">
<path d="M1090 4870 c-442 -94 -781 -433 -869 -867 -21 -99 -21 -125 -21
-1445 0 -1277 1 -1347 19 -1433 90 -430 396 -750 828 -866 119 -32 365 -38
493 -11 455 95 788 428 881 880 19 88 19 144 17 1465 l-3 1372 -24 85 c-119
429 -439 731 -866 821 -121 25 -336 25 -455 -1z m441 -319 c339 -88 595 -369
649 -713 8 -53 10 -428 8 -1353 -3 -1400 1 -1300 -60 -1455 -92 -238 -298
-430 -548 -512 -82 -26 -114 -31 -230 -35 -114 -4 -149 -2 -225 16 -113 27
-269 103 -355 173 -144 119 -255 295 -302 483 l-23 90 0 1295 0 1295 23 80
c96 341 355 583 697 651 93 18 267 11 366 -15z"/>
<path d="M3660 4884 c-14 -3 -67 -16 -118 -29 -504 -132 -849 -635 -794 -1158
16 -147 42 -238 107 -372 63 -130 124 -213 231 -315 95 -90 164 -137 287 -195
422 -200 936 -101 1257 241 195 208 293 459 292 751 -1 188 -34 329 -118 494
-135 269 -374 465 -679 555 -80 23 -110 27 -265 29 -96 2 -186 1 -200 -1z
m353 -260 c391 -89 661 -429 659 -829 -1 -132 -24 -232 -81 -352 -160 -334
-524 -529 -881 -473 -332 53 -603 298 -691 625 -29 106 -31 299 -6 395 85 320
317 554 624 629 101 25 277 27 376 5z"/>
<path d="M3660 2393 c-139 -24 -301 -87 -415 -161 -476 -308 -639 -907 -384
-1416 299 -598 1083 -781 1624 -379 208 155 352 378 411 633 29 127 33 322 9
447 -84 440 -428 784 -868 868 -74 14 -313 19 -377 8z m374 -265 c313 -77 545
-316 621 -638 20 -86 19 -262 -1 -352 -66 -290 -279 -524 -562 -618 -455 -151
-933 102 -1067 567 -81 279 -8 582 193 795 80 85 145 134 238 181 185 93 378
115 578 65z"/>
</g>
</svg>
