<?xml version="1.0" encoding="UTF-8" standalone="no"?>
<!-- Created with Inkscape (http://www.inkscape.org/) -->

<svg
   width="33.866669mm"
   height="33.866669mm"
   viewBox="0 0 33.866669 33.866669"
   version="1.1"
   id="svg5"
   xml:space="preserve"
   xmlns:inkscape="http://www.inkscape.org/namespaces/inkscape"
   xmlns:sodipodi="http://sodipodi.sourceforge.net/DTD/sodipodi-0.dtd"
   xmlns="http://www.w3.org/2000/svg"
   xmlns:svg="http://www.w3.org/2000/svg"><sodipodi:namedview
     id="namedview7"
     pagecolor="#ffffff"
     bordercolor="#666666"
     borderopacity="1.0"
     inkscape:showpageshadow="2"
     inkscape:pageopacity="0.0"
     inkscape:pagecheckerboard="0"
     inkscape:deskcolor="#d1d1d1"
     inkscape:document-units="mm"
     showgrid="false" /><defs
     id="defs2" /><g
     inkscape:label="Layer 1"
     inkscape:groupmode="layer"
     id="layer1"
     transform="translate(-113.69274,-201.58189)"><g
       id="g979"
       transform="matrix(0.26458333,0,0,0.26458333,113.69274,201.58188)"
       style="fill:#ffffff;fill-opacity:1"><path
         d="M 64,0 C 28.7,0 0,28.7 0,64 0,99.3 28.7,128 64,128 99.3,128 128,99.3 128,64 128,28.7 99.3,0 64,0 Z M 96.7,114.4 48.4,41.8 h -6.8 v 50.1 h 6.8 V 55.3 l 44.2,61.5 C 84.1,121.4 74.4,124 64,124 30.8,124.1 3.9,97.2 3.9,64 3.9,30.8 30.8,3.9 64,3.9 c 33.2,0 60.1,26.9 60.1,60.1 0,21.1 -10.9,39.7 -27.4,50.4 z"
         id="path967"
         style="fill:#ffffff;fill-opacity:1" /><path
         d="m 78.6,73.3 7.5,11.3 V 41.8 h -7.5 z"
         id="path969"
         style="fill:#ffffff;fill-opacity:1" /></g></g></svg>
