<?xml version="1.0" encoding="UTF-8" standalone="no"?>
<!-- Created with Inkscape (http://www.inkscape.org/) -->

<svg
   width="33.07291mm"
   height="33.072922mm"
   viewBox="0 0 33.07291 33.072922"
   version="1.1"
   id="svg5"
   xml:space="preserve"
   xmlns:inkscape="http://www.inkscape.org/namespaces/inkscape"
   xmlns:sodipodi="http://sodipodi.sourceforge.net/DTD/sodipodi-0.dtd"
   xmlns="http://www.w3.org/2000/svg"
   xmlns:svg="http://www.w3.org/2000/svg"><sodipodi:namedview
     id="namedview7"
     pagecolor="#ffffff"
     bordercolor="#666666"
     borderopacity="1.0"
     inkscape:showpageshadow="2"
     inkscape:pageopacity="0.0"
     inkscape:pagecheckerboard="0"
     inkscape:deskcolor="#d1d1d1"
     inkscape:document-units="mm"
     showgrid="false" /><defs
     id="defs2" /><g
     inkscape:label="Layer 1"
     inkscape:groupmode="layer"
     id="layer1"
     transform="translate(-61.916837,-130.5939)"><path
       fill="#007acc"
       d="m 61.916835,147.13037 v 16.53646 H 94.989754 V 130.59391 H 61.916835 Z m 26.65148,-1.32292 a 4.1169167,4.1169167 0 0 1 2.06904,1.19063 5.445125,5.445125 0 0 1 0.79375,1.05833 c 0,0.0423 -1.42875,1.00806 -2.29923,1.54781 -0.0317,0.0212 -0.15875,-0.11641 -0.29898,-0.32543 a 1.8758958,1.8758958 0 0 0 -1.5531,-0.93398 c -1.00277,-0.0688 -1.64836,0.45773 -1.64307,1.32291 a 1.2117917,1.2117917 0 0 0 0.14288,0.61913 c 0.2196,0.45773 0.62971,0.73025 1.91558,1.28587 2.36802,1.01865 3.38138,1.69069 4.01109,2.64584 0.70379,1.05833 0.85989,2.76754 0.38364,4.03225 -0.52916,1.37583 -1.82562,2.30981 -3.65918,2.61937 a 10.138833,10.138833 0 0 1 -2.51884,-0.0265 6.0854167,6.0854167 0 0 1 -3.35756,-1.73302 c -0.30427,-0.33602 -0.89694,-1.21179 -0.8599,-1.27529 a 2.4712083,2.4712083 0 0 1 0.30427,-0.19315 l 1.21709,-0.6985 0.94985,-0.55033 0.19844,0.29369 a 4.4397083,4.4397083 0 0 0 1.25412,1.20121 c 1.05834,0.55562 2.50296,0.47889 3.21734,-0.16405 a 1.4366875,1.4366875 0 0 0 0.18256,-1.83091 c -0.26458,-0.36777 -0.79375,-0.67734 -2.27277,-1.32292 -1.70656,-0.73554 -2.44211,-1.19062 -3.11415,-1.91558 a 4.3603333,4.3603333 0 0 1 -0.90752,-1.65365 6.6145833,6.6145833 0 0 1 -0.0582,-2.11666 c 0.3519,-1.64836 1.5875,-2.79929 3.39196,-3.14061 a 8.3767083,8.3767083 0 0 1 2.5109,0.0688 z m -7.76288,1.38642 v 1.35467 h -4.29418 v 12.23168 h -3.04536 v -12.23433 h -4.30477 v -1.32292 a 13.014854,13.014854 0 0 1 0.037,-1.36525 c 0.0159,-0.0212 2.64584,-0.0317 5.82084,-0.0265 h 5.77056 z"
       id="path9"
       style="fill:#ffffff;fill-opacity:1;stroke-width:0.264583" /></g></svg>
